#!OML:ASF E:\emotionWalksFemale\Project 1\Capture day 1\Session 1\Female1.ASF
:FULLY-SPECIFIED
:DEGREES
1694
root 8.24209 15.1182 40.7659 357.088 -189.098 -361.413
lowerback 5.89697 1.56526 3.05351
upperback -4.7627 2.51518 -0.0437601
thorax -8.19793 1.1024 -2.0876
lowerneck -7.34693 0.960351 -1.80233
upperneck 15.767 2.38311 -1.78758
head 5.98691 1.14461 -0.0686833
rclavicle -2.71838e-014 -1.98785e-015
rhumerus -49.2415 9.42282 -89.9719
rradius 42.4852
rwrist 7.51508
rhand -9.68924 -53.9547
rfingers 7.12502
rthumb 16.2829 996.709
lclavicle -2.71838e-014 -1.98785e-015
lhumerus -51.3803 -3.87009 87.1602
lradius 37.3934
lwrist -23.5433
lhand -3.08174 -27.6566
lfingers 7.12502
lthumb 22.6355 1.03611
rfemur -5.95025 18.6275 20.9641
rtibia 32.2015
rfoot -24.7949 -22.9179
rtoes 0.310616
lfemur -1.54625 -21.8483 -29.4937
ltibia 26.966
lfoot -30.3246 25.8151
ltoes -11.9999
1695
root 8.24223 15.1095 40.7563 356.717 -188.981 -361.537
lowerback 6.11409 1.63128 3.02818
upperback -4.67064 2.59434 -0.0921474
thorax -8.21951 1.13734 -2.14017
lowerneck -7.24957 0.902057 -1.89413
upperneck 15.7756 2.31704 -1.76041
head 5.97165 1.11315 -0.0502287
rclavicle 1.25731e-014 9.54166e-015
rhumerus -49.1038 10.0037 -90.3541
rradius 42.0721
rwrist 6.55991
rhand -8.42296 -56.2104
rfingers 7.12502
rthumb 17.5018 994.557
lclavicle 1.25731e-014 9.54166e-015
lhumerus -50.8461 -4.00591 87.2333
lradius 36.7752
lwrist -23.138
lhand -3.16315 -27.407
lfingers 7.12502
lthumb 22.5574 1.29521
rfemur -5.49221 18.4999 20.9531
rtibia 32.2534
rfoot -24.9778 -22.75
rtoes 0.535967
lfemur -0.99192 -21.9009 -29.8469
ltibia 26.8286
lfoot -30.3595 25.8756
ltoes -11.9575
1696
root 8.24305 15.1095 40.7595 356.762 -188.805 -361.527
lowerback 6.12361 1.66086 3.0616
upperback -4.70369 2.64165 -0.0839148
thorax -8.2574 1.15868 -2.15754
lowerneck -7.18186 0.853353 -2.08986
upperneck 15.7506 2.25048 -1.60482
head 5.94847 1.08252 0.0256052
rclavicle -3.89618e-014 -9.93923e-015
rhumerus -49.0668 10.4164 -90.6553
rradius 41.977
rwrist 5.91758
rhand -7.37684 -58.2861
rfingers 7.12502
rthumb 18.5084 992.574
lclavicle -3.89618e-014 -9.93923e-015
lhumerus -50.6186 -4.03221 87.306
lradius 36.6152
lwrist -22.8508
lhand -3.3202 -27.113
lfingers 7.12502
lthumb 22.4066 1.60744
rfemur -5.56696 18.4775 20.9587
rtibia 32.334
rfoot -25.1139 -22.9996
rtoes 0.685324
lfemur -0.971588 -22.152 -29.8519
ltibia 26.6724
lfoot -30.08 26.0767
ltoes -12.7821
1697
root 8.24523 15.1119 40.7643 356.872 -188.704 -361.484
lowerback 6.12322 1.7291 3.12004
upperback -4.77024 2.7445 -0.0962278
thorax -8.32066 1.20501 -2.21823
lowerneck -8.02868 0.837634 -3.38634
upperneck 16.6741 2.24493 -0.154063
head 6.35741 1.10474 0.713111
rclavicle -4.57205e-015 9.93923e-015
rhumerus -49.0676 10.3997 -90.8261
rradius 41.9887
rwrist 5.73663
rhand -9.32556 -55.8464
rfingers 7.12502
rthumb 16.633 994.846
lclavicle -4.57205e-015 9.93923e-015
lhumerus -50.5116 -3.85442 87.2171
lradius 36.4287
lwrist -22.8806
lhand -3.98601 -27.3725
lfingers 7.12502
lthumb 21.7674 1.42347
rfemur -5.67238 18.5068 20.9911
rtibia 32.3095
rfoot -25.099 -23.2895
rtoes 0.4545
lfemur -1.1197 -22.3647 -29.7829
ltibia 26.7087
lfoot -29.8316 26.4116
ltoes -14.1833
1698
root 8.25093 15.1151 40.7691 356.955 -188.668 -361.522
lowerback 6.1841 1.82881 3.04657
upperback -4.86096 2.87763 -0.136163
thorax -8.44834 1.27122 -2.24176
lowerneck -8.33126 0.771687 -3.92538
upperneck 17.0773 2.17201 0.424514
head 6.52763 1.08218 0.988453
rclavicle -1.73937e-014 -9.14409e-015
rhumerus -49.0327 10.2236 -90.933
rradius 41.7057
rwrist 5.68577
rhand -9.29812 -56.2948
rfingers 7.12502
rthumb 16.6595 994.4
lclavicle -1.73937e-014 -9.14409e-015
lhumerus -50.5575 -3.57019 87.0063
lradius 36.4971
lwrist -22.783
lhand -3.86918 -27.6474
lfingers 7.12502
lthumb 21.8796 1.13556
rfemur -5.74883 18.5437 20.9457
rtibia 32.233
rfoot -24.9706 -23.2878
rtoes -0.00184604
lfemur -1.31364 -22.289 -29.7371
ltibia 26.8363
lfoot -29.7727 26.4337
ltoes -14.6047
1699
root 8.25795 15.1114 40.777 356.837 -188.567 -361.523
lowerback 6.45813 1.87538 3.02958
upperback -4.88862 2.94491 -0.166117
thorax -8.63483 1.29823 -2.28591
lowerneck -8.10375 0.73605 -3.74798
upperneck 16.9626 2.13143 0.189967
head 6.45695 1.05967 0.878038
rclavicle 2.45499e-014 3.18055e-015
rhumerus -49.0318 10.1956 -91.1002
rradius 41.355
rwrist 5.47224
rhand -8.52386 -57.2937
rfingers 7.12502
rthumb 17.4047 993.465
lclavicle 2.45499e-014 3.18055e-015
lhumerus -50.6819 -3.23501 86.7651
lradius 36.6096
lwrist -22.8537
lhand -3.63138 -27.6491
lfingers 7.12502
lthumb 22.1079 1.107
rfemur -5.55021 18.5919 21.0309
rtibia 32.1036
rfoot -24.9092 -23.3458
rtoes -0.519782
lfemur -1.31206 -22.2247 -29.7198
ltibia 27.0124
lfoot -29.6387 26.3736
ltoes -15.2088
1700
root 8.2613 15.1087 40.7848 356.773 -188.408 -361.346
lowerback 6.61893 1.87767 3.27223
upperback -4.87966 2.97882 -0.148152
thorax -8.70805 1.29792 -2.41418
lowerneck -6.96399 0.568367 -2.36374
upperneck 15.789 1.88363 -1.44218
head 5.92019 0.908754 0.0950923
rclavicle 1.99282e-014 6.75868e-015
rhumerus -48.8964 10.2315 -91.2062
rradius 40.9629
rwrist 5.46917
rhand -8.09225 -57.384
rfingers 7.12502
rthumb 17.8201 993.412
lclavicle 1.99282e-014 6.75868e-015
lhumerus -51.2713 -2.7506 86.5459
lradius 37.16
lwrist -22.8881
lhand -3.03519 -27.6041
lfingers 7.12502
lthumb 22.6802 1.0831
rfemur -5.36752 18.6158 21.2909
rtibia 31.9653
rfoot -24.8785 -23.5607
rtoes 0.00984632
lfemur -1.41054 -21.8977 -29.4313
ltibia 27.183
lfoot -29.4443 26.0122
ltoes -15.9125
